<svg width="34" height="34" viewBox="0 0 34 34" fill="none" xmlns="http://www.w3.org/2000/svg">
<g clip-path="url(#clip0)">
<path d="M17.0132 -8.54001e-05C7.62371 -0.00798774 0.0079085 7.59732 6.15266e-06 16.9868C-0.00789619 26.3762 7.59741 33.992 16.9869 33.9999C26.375 33.992 33.9855 26.3881 34 16.9999C34 7.61572 26.3974 0.00781694 17.0132 -8.54001e-05ZM16.9869 31.171C9.16055 31.171 2.81583 24.8262 2.81583 16.9999C2.81583 9.17361 9.16055 2.82889 16.9869 2.82889C24.8105 2.83679 31.15 9.17626 31.1579 16.9999C31.1579 24.8262 24.8132 31.171 16.9869 31.171Z" fill="#E4A22B"/>
<path d="M21.579 16.1711C22.7158 15.5302 23.3303 14.2474 23.1185 12.9605C22.8553 10.9737 20.4869 10.2236 18.6184 10.0658V7.07898H16.7763V10.0395H15.5395V7.07898H13.6974V10.0395H9.98682V11.9474H11.3684C11.9868 11.9474 12.2895 12.1316 12.2895 12.6316V20.829C12.2895 21.5132 11.9473 21.7237 11.5789 21.7237H10.171V23.6711H13.75V26.6974H15.6052V23.6711H16.8421V26.6974H18.6447V23.6711H19.0394C22.8289 23.6711 24.0921 21.8159 24.0921 19.2896C24.0618 17.8 23.0289 16.5184 21.579 16.1711ZM15.5394 12.0658H16.8552C17.7763 12.0658 19.5921 12.2237 19.5921 13.7237C19.6552 14.7027 18.946 15.5606 17.9736 15.6842H15.5394V12.0658ZM17.5789 21.5395V21.5263H15.5394V17.5789H17.9079C18.4605 17.5789 20.5394 17.7631 20.5394 19.2368C20.5394 20.7105 19.5526 21.5395 17.5789 21.5395Z" fill="#E4A22B"/>
</g>
<defs>
<clipPath id="clip0">
<rect width="34" height="34" fill="white"/>
</clipPath>
</defs>
</svg>
