<svg width="161" height="70" viewBox="0 0 161 70" fill="none" xmlns="http://www.w3.org/2000/svg">
<path d="M36.0002 56.9032C27.373 56.9032 12.7744 55.6804 12.7744 51.0968C12.7744 46.5132 27.373 45.2903 36.0002 45.2903C44.6274 45.2903 59.226 46.5132 59.226 51.0968C59.226 55.6804 44.6274 56.9032 36.0002 56.9032Z" fill="#F0BC5E"/>
<path d="M42.3778 40.8077L45.3623 36.9697C44.5982 36.7165 43.9502 36.216 43.524 35.5506L39.5222 40.6951C38.347 40.6626 37.1717 40.6451 36 40.6451C18.5481 40.6451 0 44.3079 0 51.0968V58.0645C0 64.8534 18.5481 68.5161 36 68.5161C53.4519 68.5161 72 64.8534 72 58.0645V51.0968C72 45.1335 57.6871 41.5823 42.3778 40.8077ZM36 42.9677C56.8661 42.9677 69.6774 47.7023 69.6774 51.0968C69.6774 54.4912 56.8661 59.2258 36 59.2258C15.1339 59.2258 2.32258 54.4912 2.32258 51.0968C2.32258 47.7023 15.1339 42.9677 36 42.9677ZM13.9355 59.4511V64.0498C12.2086 63.6596 10.6537 63.2334 9.29032 62.784V58.2538C10.7234 58.6951 12.2795 59.0957 13.9355 59.4511ZM16.2581 59.9075C17.7503 60.1781 19.3041 60.415 20.9032 60.6193V65.268C19.2577 65.052 17.705 64.8058 16.2581 64.5317V59.9075ZM23.2258 60.8911C24.7483 61.0513 26.3009 61.1837 27.871 61.2848V65.9381C26.2568 65.8347 24.7053 65.7035 23.2258 65.5455V60.8911ZM30.1935 61.4125C31.7381 61.4833 33.2907 61.5275 34.8387 61.5414V66.1854C33.2419 66.1715 31.6905 66.132 30.1935 66.0658V61.4125ZM37.1613 61.5402C38.7093 61.5263 40.2619 61.4822 41.8064 61.4113V66.0658C40.3095 66.132 38.7581 66.1715 37.1613 66.1854V61.5402ZM44.129 61.2859C45.6991 61.1837 47.2517 61.0513 48.7742 60.8922V65.5467C47.2947 65.7046 45.7432 65.8359 44.129 65.9392V61.2859ZM51.0968 60.6193C52.6959 60.415 54.2497 60.1769 55.7419 59.9075V64.5317C54.295 64.8058 52.7423 65.052 51.0968 65.268V60.6193ZM58.0645 59.4511C59.7205 59.0957 61.2766 58.6951 62.7097 58.2526V62.7828C61.3463 63.2334 59.7914 63.6584 58.0645 64.0486V59.4511ZM2.32258 58.0645V54.9871C3.49665 55.901 5.07484 56.7244 6.96774 57.4525V61.9153C3.94723 60.6449 2.32258 59.2699 2.32258 58.0645ZM65.0323 61.9165V57.4537C66.9252 56.7255 68.5033 55.9022 69.6774 54.9882V58.0645C69.6774 59.2699 68.0528 60.6449 65.0323 61.9165Z" fill="black"/>
<path d="M34.8389 23.2258H37.1614V20.9032C39.0822 20.9032 40.6453 19.3401 40.6453 17.4194C40.6453 15.4986 39.0822 13.9355 37.1614 13.9355H34.8389C34.1978 13.9355 33.6776 13.4152 33.6776 12.7742C33.6776 12.1332 34.1978 11.6129 34.8389 11.6129H38.3227V12.7742H40.6453V9.29032H37.1614V6.96774H34.8389V9.29032C32.9181 9.29032 31.355 10.8534 31.355 12.7742C31.355 14.695 32.9181 16.2581 34.8389 16.2581H37.1614C37.8025 16.2581 38.3227 16.7783 38.3227 17.4194C38.3227 18.0604 37.8025 18.5806 37.1614 18.5806H33.6776V17.4194H31.355V20.9032H34.8389V23.2258Z" fill="black"/>
<path d="M23.2261 27.871H31.6106L33.4315 35.1557C33.7264 36.3368 34.7832 37.1613 36.0003 37.1613C37.2173 37.1613 38.2741 36.3368 38.569 35.1546L40.3899 27.871H48.7744C50.6952 27.871 52.2583 26.3079 52.2583 24.3871V5.80644C52.2583 3.88567 50.6952 2.32257 48.7744 2.32257H23.2261C21.3053 2.32257 19.7422 3.88567 19.7422 5.80644V24.3871C19.7422 26.3079 21.3053 27.871 23.2261 27.871ZM22.0648 5.80644C22.0648 5.16541 22.585 4.64515 23.2261 4.64515H48.7744C49.4155 4.64515 49.9357 5.16541 49.9357 5.80644V24.3871C49.9357 25.0281 49.4155 25.5484 48.7744 25.5484H38.5783L36.3173 34.5913C36.2441 34.8817 35.7575 34.8805 35.6844 34.5925L33.4222 25.5484H23.2261C22.585 25.5484 22.0648 25.0281 22.0648 24.3871V5.80644Z" fill="black"/>
<path d="M66.2518 26.5633C65.4737 26.3729 64.777 25.9885 64.2079 25.4601L59.7544 33.7308C60.5627 33.8551 61.2745 34.2534 61.7994 34.8329L66.2518 26.5633Z" fill="black"/>
<path d="M49.9088 33.4161C49.9158 33.5044 49.9355 33.588 49.9355 33.6774C49.9355 34.4148 49.7021 35.0965 49.3096 35.6609L55.7687 37.4226C55.7617 37.3343 55.742 37.2507 55.742 37.1613C55.742 36.4238 55.9754 35.7422 56.3679 35.1778L49.9088 33.4161Z" fill="black"/>
<path d="M46.4516 37.1613C44.5309 37.1613 42.9678 35.5982 42.9678 33.6774C42.9678 31.7566 44.5309 30.1935 46.4516 30.1935C48.3724 30.1935 49.9355 31.7566 49.9355 33.6774C49.9355 35.5982 48.3724 37.1613 46.4516 37.1613Z" fill="#F0BC5E"/>
<path d="M59.2261 40.6451C57.3053 40.6451 55.7422 39.082 55.7422 37.1613C55.7422 35.2405 57.3053 33.6774 59.2261 33.6774C61.1468 33.6774 62.7099 35.2405 62.7099 37.1613C62.7099 39.082 61.1468 40.6451 59.2261 40.6451Z" fill="#F0BC5E"/>
<path d="M67.3546 26.7097C64.7928 26.7097 62.7095 24.6263 62.7095 22.0645C62.7095 19.5027 64.7928 17.4193 67.3546 17.4193C69.9164 17.4193 71.9998 19.5027 71.9998 22.0645C71.9998 24.6263 69.9164 26.7097 67.3546 26.7097Z" fill="#F0BC5E"/>
<path d="M17.4195 23.2258H9.2905V20.9032L2.32275 25.5484L9.2905 30.1936V27.871H17.4195V23.2258Z" fill="#F0BC5E"/>
<path d="M54.5806 6.96774H62.7096V9.29032L69.6773 4.64516L62.7096 0V2.32258H54.5806V6.96774Z" fill="#F0BC5E"/>
<path d="M93.688 30.36C94.664 30.568 95.448 31.056 96.04 31.824C96.632 32.576 96.928 33.44 96.928 34.416C96.928 35.824 96.432 36.944 95.44 37.776C94.464 38.592 93.096 39 91.336 39H83.488V22.152H91.072C92.784 22.152 94.12 22.544 95.08 23.328C96.056 24.112 96.544 25.176 96.544 26.52C96.544 27.512 96.28 28.336 95.752 28.992C95.24 29.648 94.552 30.104 93.688 30.36ZM87.592 28.968H90.28C90.952 28.968 91.464 28.824 91.816 28.536C92.184 28.232 92.368 27.792 92.368 27.216C92.368 26.64 92.184 26.2 91.816 25.896C91.464 25.592 90.952 25.44 90.28 25.44H87.592V28.968ZM90.616 35.688C91.304 35.688 91.832 35.536 92.2 35.232C92.584 34.912 92.776 34.456 92.776 33.864C92.776 33.272 92.576 32.808 92.176 32.472C91.792 32.136 91.256 31.968 90.568 31.968H87.592V35.688H90.616ZM84.926 50.228V60H82.966V50.228H84.926ZM95.2205 60H93.2605L88.8225 53.294V60H86.8625V50.214H88.8225L93.2605 56.934V50.214H95.2205V60ZM103.191 50.228V51.81H99.1174V54.316H102.239V55.87H99.1174V60H97.1574V50.228H103.191ZM109.117 60.098C108.203 60.098 107.363 59.8833 106.597 59.454C105.832 59.0247 105.225 58.432 104.777 57.676C104.329 56.9107 104.105 56.0473 104.105 55.086C104.105 54.134 104.329 53.28 104.777 52.524C105.225 51.7587 105.832 51.1613 106.597 50.732C107.363 50.3027 108.203 50.088 109.117 50.088C110.041 50.088 110.881 50.3027 111.637 50.732C112.403 51.1613 113.005 51.7587 113.443 52.524C113.891 53.28 114.115 54.134 114.115 55.086C114.115 56.0473 113.891 56.9107 113.443 57.676C113.005 58.432 112.403 59.0247 111.637 59.454C110.872 59.8833 110.032 60.098 109.117 60.098ZM109.117 58.348C109.705 58.348 110.223 58.2173 110.671 57.956C111.119 57.6853 111.469 57.3027 111.721 56.808C111.973 56.3133 112.099 55.7393 112.099 55.086C112.099 54.4327 111.973 53.8633 111.721 53.378C111.469 52.8833 111.119 52.5053 110.671 52.244C110.223 51.9827 109.705 51.852 109.117 51.852C108.529 51.852 108.007 51.9827 107.549 52.244C107.101 52.5053 106.751 52.8833 106.499 53.378C106.247 53.8633 106.121 54.4327 106.121 55.086C106.121 55.7393 106.247 56.3133 106.499 56.808C106.751 57.3027 107.101 57.6853 107.549 57.956C108.007 58.2173 108.529 58.348 109.117 58.348ZM120.613 60L118.457 56.192H117.533V60H115.573V50.228H119.241C119.997 50.228 120.641 50.3633 121.173 50.634C121.705 50.8953 122.102 51.2547 122.363 51.712C122.634 52.16 122.769 52.664 122.769 53.224C122.769 53.868 122.583 54.4513 122.209 54.974C121.836 55.4873 121.281 55.842 120.543 56.038L122.881 60H120.613ZM117.533 54.722H119.171C119.703 54.722 120.1 54.596 120.361 54.344C120.623 54.0827 120.753 53.7233 120.753 53.266C120.753 52.818 120.623 52.4727 120.361 52.23C120.1 51.978 119.703 51.852 119.171 51.852H117.533V54.722ZM135.196 50.228V60H133.236V53.644L130.618 60H129.134L126.502 53.644V60H124.542V50.228H126.768L129.876 57.494L132.984 50.228H135.196ZM143.126 58.138H139.234L138.59 60H136.532L140.046 50.214H142.328L145.842 60H143.77L143.126 58.138ZM142.594 56.57L141.18 52.482L139.766 56.57H142.594Z" fill="black"/>
<path d="M103.412 22.152V39H99.3083V22.152H103.412ZM118.506 22.152V25.44H114.042V39H109.938V25.44H105.474V22.152H118.506Z" fill="#F0BC5E"/>
<path d="M82 41.4H97.816V42.6H82V41.4Z" fill="black"/>
<path d="M97.8203 41.4H119.082V42.6H97.8203V41.4Z" fill="#F0BC5E"/>
<path d="M82 61.4H146.192V62.1H82V61.4Z" fill="black"/>
</svg>
