<svg width="22" height="22" viewBox="0 0 22 22" fill="none" xmlns="http://www.w3.org/2000/svg">
<g clip-path="url(#clip0)">
<path d="M17.3541 8.02354C17.2473 7.88347 17.0471 7.85659 16.907 7.96343C16.7669 8.07028 16.74 8.27049 16.8469 8.41056L20.9291 13.7609H20.0196L16.383 8.99465C16.2761 8.85458 16.0759 8.8277 15.9359 8.93455C15.7958 9.04139 15.7689 9.2416 15.8758 9.38167L19.5427 14.1877V17.6382H13.7025V16.9857C13.7025 15.8549 12.7826 14.9349 11.6517 14.9349C10.5209 14.9349 9.60091 15.8549 9.60091 16.9857V17.6382H6.4302C6.25402 17.6382 6.11119 17.781 6.11119 17.9572C6.11119 18.1334 6.25402 18.2762 6.4302 18.2762H9.60091V19.1795H4.99682C4.82064 19.1795 4.67781 19.3223 4.67781 19.4985C4.67781 19.6747 4.82064 19.8175 4.99682 19.8175H16.1294C16.3056 19.8175 16.4484 19.6747 16.4484 19.4985C16.4484 19.3223 16.3056 19.1795 16.1294 19.1795H13.7025V18.2762H19.5427V19.1795H17.4889C17.3127 19.1795 17.1699 19.3223 17.1699 19.4985C17.1699 19.6747 17.3127 19.8175 17.4889 19.8175H19.8617H20.3014C20.3371 19.8175 20.3662 19.8465 20.3662 19.8823V20.5505H3.72184C3.54566 20.5505 3.40283 20.6933 3.40283 20.8695C3.40283 21.0456 3.54566 21.1885 3.72184 21.1885H20.6852C20.8614 21.1885 21.0042 21.0456 21.0042 20.8695V19.8823C21.0042 19.4947 20.6889 19.1795 20.3014 19.1795H20.1808V14.3989H21.1021C21.3137 14.3989 21.5034 14.2811 21.5972 14.0915C21.691 13.9018 21.6696 13.6795 21.5413 13.5113L17.3541 8.02354ZM10.2389 19.1795V16.9857C10.2389 16.2067 10.8727 15.5729 11.6517 15.5729C12.4308 15.5729 13.0645 16.2067 13.0645 16.9857V19.1795H10.2389Z" fill="black"/>
<path d="M2.24394 14.3989H3.16524V15.2131C3.16524 15.3893 3.30808 15.5322 3.48426 15.5322C3.66043 15.5322 3.80327 15.3893 3.80327 15.2131V14.1877L11.673 3.87346L13.4026 6.14027C13.5095 6.28034 13.7097 6.30722 13.8497 6.20037C13.9898 6.09352 14.0167 5.89331 13.9098 5.75325L11.9266 3.15403C11.8663 3.07496 11.7725 3.02851 11.673 3.02851C11.5736 3.02851 11.4798 3.07492 11.4195 3.15403L3.32641 13.7609H2.41689L8.75291 5.45669C8.8598 5.31663 8.83288 5.11642 8.69281 5.00957C8.55278 4.90264 8.35253 4.92956 8.24568 5.06967L1.80473 13.5113C1.67636 13.6796 1.65496 13.9018 1.74879 14.0915C1.84263 14.2811 2.03233 14.3989 2.24394 14.3989Z" fill="black"/>
<path d="M9.13089 4.43531C9.27092 4.5422 9.47113 4.51527 9.57802 4.37521L11.3855 2.00628C11.4535 1.91721 11.5609 1.86404 11.673 1.86404C11.785 1.86404 11.8925 1.91721 11.9604 2.00628L14.3737 5.16916C14.4365 5.25147 14.5314 5.29468 14.6275 5.29468C14.695 5.29468 14.763 5.27337 14.8208 5.22926C14.9609 5.12241 14.9878 4.9222 14.8809 4.78214L12.4677 1.61921C12.2798 1.37298 11.9827 1.22598 11.673 1.22598C11.3633 1.22598 11.0662 1.37298 10.8783 1.61921L9.07079 3.98814C8.9639 4.12825 8.99082 4.32846 9.13089 4.43531Z" fill="black"/>
<path d="M15.3558 11.1552C14.773 11.1552 14.2989 11.6293 14.2989 12.2122V14.0593C14.1581 14.0924 14.0532 14.2186 14.0532 14.3695C14.0532 14.5457 14.1961 14.6885 14.3722 14.6885H14.6179H16.0938H16.3775C16.5536 14.6885 16.6965 14.5457 16.6965 14.3695C16.6965 14.2052 16.5723 14.0701 16.4128 14.0525V12.2122C16.4128 11.6294 15.9387 11.1552 15.3558 11.1552ZM14.9369 14.0505V12.2122C14.9369 11.9811 15.1248 11.7932 15.3559 11.7932C15.5869 11.7932 15.7749 11.9811 15.7749 12.2122V14.0505H14.9369Z" fill="black"/>
<path d="M0.586199 21.1736H2.29363C2.46981 21.1736 2.61264 21.0308 2.61264 20.8546C2.61264 20.6784 2.46981 20.5356 2.29363 20.5356H0.637835V15.9305L2.41405 17.7067C2.53863 17.8313 2.74063 17.8313 2.86517 17.7067L11.0458 9.52613V9.89763C11.0458 10.0641 11.1459 10.211 11.3008 10.2719C11.4557 10.3328 11.6291 10.2934 11.7425 10.1715L20.3972 0.865158C20.41 0.851505 20.4249 0.848314 20.4352 0.848017C20.4453 0.847549 20.4606 0.850143 20.474 0.863073L20.9916 1.36379C21.0125 1.38396 21.0134 1.41768 20.9937 1.439L10.195 13.0925V12.551C10.195 12.3877 10.0975 12.2418 9.94674 12.1794C9.79591 12.1169 9.62386 12.1511 9.50842 12.2666L3.46674 18.3083C3.34215 18.4329 3.34215 18.6349 3.46674 18.7594L5.24295 20.5356H3.65313C3.47695 20.5356 3.33411 20.6784 3.33411 20.8546C3.33411 21.0308 3.47695 21.1736 3.65313 21.1736H5.36762C5.60564 21.1736 5.81827 21.0316 5.90934 20.8117C6.00045 20.5918 5.95056 20.3409 5.78225 20.1726L4.14347 18.5338L9.55704 13.1203V13.5763C9.55704 13.762 9.66877 13.9259 9.84168 13.9937C10.0147 14.0615 10.2079 14.0172 10.3342 13.881L21.4617 1.87264C21.7155 1.59876 21.7036 1.16473 21.4352 0.905184L20.9176 0.404465C20.7874 0.278605 20.6175 0.209953 20.4372 0.209953C20.4309 0.209953 20.4246 0.210037 20.4183 0.210209C20.231 0.215185 20.0576 0.293449 19.9301 0.430666L11.6838 9.2978V9.06824C11.6838 8.88628 11.5752 8.72367 11.407 8.654C11.2389 8.58437 11.0472 8.62252 10.9184 8.75119L2.63965 17.03L1.00087 15.3912C0.83256 15.2229 0.58169 15.173 0.361828 15.2641C0.141924 15.3552 -0.00018692 15.5679 -0.00018692 15.8058V20.5873C-0.000228882 20.9106 0.26285 21.1736 0.586199 21.1736Z" fill="#DE2222"/>
</g>
<defs>
<clipPath id="clip0">
<rect width="21.6448" height="21.6448" fill="white"/>
</clipPath>
</defs>
</svg>
