<svg width="31" height="32" viewBox="0 0 31 32" fill="none" xmlns="http://www.w3.org/2000/svg">
<path d="M11.1583 0C14.1177 0 16.9559 1.22255 19.0485 3.3987C21.1411 5.57486 22.3167 8.52636 22.3167 11.6039C22.3167 14.4781 21.3038 17.1202 19.6387 19.1554L20.1022 19.6374H21.4583L30.0417 28.5635L27.4667 31.2413L18.8833 22.3152V20.9049L18.4198 20.4229C16.3951 22.2202 13.8204 23.2076 11.1583 23.2078C8.19897 23.2078 5.3608 21.9853 3.2682 19.8091C1.17561 17.6329 0 14.6815 0 11.6039C0 8.52636 1.17561 5.57486 3.2682 3.3987C5.3608 1.22255 8.19897 0 11.1583 0ZM11.1583 3.57043C6.86667 3.57043 3.43334 7.14086 3.43334 11.6039C3.43334 16.0669 6.86667 19.6374 11.1583 19.6374C15.45 19.6374 18.8833 16.0669 18.8833 11.6039C18.8833 7.14086 15.45 3.57043 11.1583 3.57043Z" fill="#9B9B9B"/>
</svg>
