<svg width="18" height="18" viewBox="0 0 18 18" fill="none" xmlns="http://www.w3.org/2000/svg">
<path d="M1.61043 10.7716L3.93624 13.1008V15.0911L0.615201 11.7651C-0.205067 10.9434 -0.205067 9.60633 0.615201 8.78455L9.38286 0H17.9988V7.90852C17.8194 7.78191 17.625 7.66518 17.4151 7.56039C17.1605 7.43309 16.8843 7.32364 16.5925 7.23314V1.40625H9.96623L1.61043 9.77799C1.337 10.052 1.337 10.4976 1.61043 10.7716ZM12.9375 4.35938C12.9375 4.74775 13.2524 5.06251 13.6406 5.06251C14.029 5.06251 14.3437 4.74775 14.3437 4.35938C14.3437 3.97102 14.029 3.65626 13.6406 3.65626C13.2522 3.65626 12.9375 3.97115 12.9375 4.35938ZM17.996 10.5469H18V15.8907C18 16.5465 17.5695 17.123 16.7875 17.5139C16.1606 17.8274 15.3427 18 14.4844 18C13.6261 18 12.8081 17.8274 12.1812 17.5139C11.9899 17.4183 11.8199 17.3116 11.6719 17.1953C11.5238 17.3116 11.3538 17.4183 11.1625 17.5139C10.5356 17.8274 9.71767 18 8.85936 18C8.00105 18 7.18312 17.8274 6.55621 17.5139C5.77439 17.123 5.34373 16.5465 5.34373 15.8907V13.1485H5.34441C5.34414 13.1368 5.34373 13.1251 5.34373 13.1133C5.34373 12.4574 5.77439 11.8809 6.55621 11.4901C7.18312 11.1765 8.00105 11.0039 8.85936 11.0039C9.62826 11.0039 10.3674 11.1495 10.9687 11.4156V10.5469H10.9727C10.9702 10.512 10.9687 10.4769 10.9687 10.4414C10.9687 9.78554 11.3994 9.20903 12.1812 8.81819C12.8081 8.50467 13.6261 8.33205 14.4844 8.33205C15.3427 8.33205 16.1606 8.50467 16.7875 8.81819C17.5695 9.20903 18 9.78554 18 10.4414C18 10.4769 17.9985 10.512 17.996 10.5469ZM12.375 10.4414C12.375 10.4657 12.4507 10.6272 12.81 10.8069C13.2392 11.0215 13.8495 11.1446 14.4844 11.1446C15.1192 11.1446 15.7295 11.0215 16.1587 10.8069C16.5181 10.6272 16.5937 10.4657 16.5937 10.4414C16.5937 10.4171 16.5181 10.2556 16.1587 10.076C15.7295 9.86135 15.1192 9.7383 14.4844 9.7383C13.8495 9.7383 13.2392 9.86135 12.81 10.076C12.4507 10.2556 12.375 10.4171 12.375 10.4414ZM6.74998 13.1133C6.74998 13.1376 6.82565 13.2991 7.18504 13.4787C7.61419 13.6934 8.22448 13.8164 8.85936 13.8164C9.50192 13.8164 10.1154 13.6982 10.5425 13.4921C10.8902 13.3242 10.9687 13.1699 10.9687 13.1485C10.9687 13.1063 10.8635 12.9362 10.525 12.7611C10.0941 12.538 9.48695 12.4102 8.85936 12.4102C8.22448 12.4102 7.61419 12.5332 7.18504 12.7479C6.82565 12.9275 6.74998 13.089 6.74998 13.1133ZM10.9687 15.8907V14.842C10.3928 15.0843 9.67042 15.2227 8.85936 15.2227C8.08674 15.2227 7.34736 15.0825 6.74998 14.8258V15.8907C6.74998 15.915 6.82565 16.0765 7.18504 16.2561C7.61419 16.4707 8.22448 16.5938 8.85936 16.5938C9.49423 16.5938 10.1045 16.4707 10.5337 16.2561C10.8931 16.0765 10.9687 15.915 10.9687 15.8907ZM16.5937 15.8907V14.8258C15.9965 15.0825 15.257 15.2227 14.4844 15.2227C13.7118 15.2227 12.9724 15.0825 12.375 14.8258V15.8907C12.375 15.915 12.4507 16.0765 12.81 16.2561C13.2392 16.4707 13.8495 16.5938 14.4844 16.5938C15.1192 16.5938 15.7295 16.4707 16.1587 16.2561C16.5181 16.0765 16.5937 15.915 16.5937 15.8907ZM16.5937 13.1133V12.1539C15.9965 12.4106 15.257 12.5508 14.4844 12.5508C13.7118 12.5508 12.9724 12.4106 12.375 12.1539V13.1133C12.375 13.1376 12.4507 13.2991 12.81 13.4787C13.2392 13.6934 13.8495 13.8164 14.4844 13.8164C15.1192 13.8164 15.7295 13.6934 16.1587 13.4787C16.5181 13.2991 16.5937 13.1376 16.5937 13.1133Z" fill="#18CA9F"/>
</svg>
