<svg width="9" height="17" viewBox="0 0 9 17" fill="none" xmlns="http://www.w3.org/2000/svg">
<path d="M3.64713 0.194777C3.64693 0.194977 3.6467 0.195143 3.6465 0.195375L0.193373 3.66523C-0.0653127 3.92518 -0.06435 4.34563 0.19563 4.60438C0.455577 4.8631 0.876028 4.8621 1.13475 4.60216L3.45312 2.27249L3.45312 16.3359C3.45312 16.7027 3.75042 17 4.11718 17C4.48394 17 4.78124 16.7027 4.78124 16.3359L4.78124 2.27253L7.09962 4.60213C7.35834 4.86207 7.77879 4.86307 8.03874 4.60435C8.29875 4.3456 8.29965 3.92511 8.04099 3.6652L4.58787 0.195341C4.58767 0.195143 4.58744 0.194977 4.58724 0.194744C4.32766 -0.0653362 3.90585 -0.0645065 3.64713 0.194777Z" fill="#27C052"/>
</svg>
