<svg width="9" height="17" viewBox="0 0 9 17" fill="none" xmlns="http://www.w3.org/2000/svg">
<path d="M4.58725 16.8052C4.58745 16.805 4.58768 16.8049 4.58788 16.8046L8.041 13.3348C8.29969 13.0748 8.29873 12.6544 8.03874 12.3956C7.7788 12.1369 7.35835 12.1379 7.09963 12.3978L4.78125 14.7275L4.78125 0.664062C4.78125 0.297301 4.48395 0 4.11719 0C3.75043 0 3.45313 0.297301 3.45313 0.664062L3.45313 14.7275L1.13476 12.3979C0.876038 12.1379 0.455587 12.1369 0.19564 12.3957C-0.064374 12.6544 -0.0652704 13.0749 0.193382 13.3348L3.64651 16.8047C3.6467 16.8049 3.64694 16.805 3.64714 16.8053C3.90672 17.0653 4.32853 17.0645 4.58725 16.8052Z" fill="#C02727"/>
</svg>
